<!-- icon666.com - MILLIONS vector ICONS FREE --><svg viewBox="0 0 409 409.71" xmlns="http://www.w3.org/2000/svg"><path d="m387.375 296.40625c-.769531-25.730469-10.808594-173.242188-136.789062-229.949219 1.800781-5.058593 2.828124-10.480469 2.828124-16.148437v-1.910156c0-26.6875-21.710937-48.398438-48.398437-48.398438h-1.46875c-26.6875 0-48.402344 21.710938-48.402344 48.398438v1.910156c0 5.9375 1.125 11.597656 3.089844 16.855468-124.546875 57.207032-134.53125 203.617188-135.300781 229.242188-13.023438 3.78125-22.578125 15.796875-22.578125 30.023438v52c0 17.25 14.03125 31.28125 31.28125 31.28125h347.035156c17.25 0 31.28125-14.03125 31.28125-31.28125v-52c0-14.226563-9.554687-26.242188-22.578125-30.023438zm-221.988281-248.007812c0-21.039063 17.117187-38.160157 38.160156-38.160157h1.46875c21.042969 0 38.160156 17.121094 38.160156 38.160157v1.910156c0 21.042968-17.117187 38.160156-38.160156 38.160156h-1.46875c-21.042969 0-38.160156-17.117188-38.160156-38.160156zm-2.589844 27.929687c8.609375 13.433594 23.640625 22.382813 40.75 22.382813h1.46875c17.378906 0 32.601563-9.238282 41.140625-23.03125 118.550781 53.195312 129.878906 191.394531 130.9375 219.46875h-343.882812c1.035156-27.945313 12.207031-165.125 129.585937-218.820313zm-75.605469 229.0625v94.078125h-34.894531v-94.078125zm10.242188 0h34.894531v94.078125h-34.894531zm45.136718 0h34.898438v94.078125h-34.898438zm45.136719 0h34.894531v94.078125h-34.894531zm45.136719 0h34.894531v94.078125h-34.894531zm45.136719 0h34.898437v94.078125h-34.898437zm45.136719 0h34.898437v94.078125h-34.898437zm-312.523438 73.039063v-52c0-11.601563 9.441406-21.039063 21.042969-21.039063h10.417969v94.078125h-10.417969c-11.601563 0-21.042969-9.4375-21.042969-21.039062zm389.121094 0c0 11.601562-9.441406 21.039062-21.042969 21.039062h-10.417969v-94.078125h10.417969c11.601563 0 21.042969 9.4375 21.042969 21.039063zm0 0"></path></svg>