<!-- icon666.com - MILLIONS vector ICONS FREE --><svg version="1.1" id="Capa_1" xmlns="http://www.w3.org/2000/svg" xmlns:xlink="http://www.w3.org/1999/xlink" x="0px" y="0px" viewBox="0 0 511.997 511.997" style="enable-background:new 0 0 511.997 511.997;" xml:space="preserve"><g><g><path d="M473.643,376.449c4.44-7.04,6.456-16.128,4.337-24.21c-1.247-4.756-3.761-9.256-7.081-12.889 c-0.706-0.774-1.684-1.482-2.508-2.234c0.223-0.407,0.617-1.038,1.372-1.989c5.311-6.685,8.459-17.186,5.934-25.496 c-2.441-8.036-6.594-12.391-12.135-16.697c6.692-9.142,11.833-18.858,9.088-30.955c-1.389-6.12-4.204-10.8-8.363-13.756 c4.701-3.13,8.717-7.247,11.615-12.787c3.936-7.527,5.842-14.081,3.226-22.548c-1.009-3.267-2.761-6.319-4.992-8.893 c-1.313-1.514-3.022-2.577-4.361-4.013c-0.702-0.754-1.246-1.292-1.702-1.716c0.067-0.228,0.108-0.532,0.083-1.004 c-0.131-2.478,3.192-7.288,3.549-10.09c0.453-3.556,0.262-7.117-0.808-10.553c-2.267-7.28-7.576-10.904-13.996-13.643 c-0.291-7.574,0.601-15.377,0.152-22.991c-0.525-8.914-1.42-17.573-3.028-26.383c-3.443-18.864-9.843-37.846-20.701-53.823 c-21.093-31.037-57.023-46.41-92.576-54.083c-38.578-8.327-77.685-6.983-116.389,0.53c-38.786,7.529-75.443,22.616-105.45,48.69 c-15.635,13.585-26.369,30.79-34.577,49.603c-4.424,10.141-6.982,20.946-8.719,31.847c-0.985,6.18-2.356,13.143-0.332,19.21 c-1.179,0.701-2.515,1.364-4.086,2.036c-2.544,1.088-4.922,2.334-7.107,4.045c-7.631,5.974-10.585,15.486-9.243,24.937 c0.501,3.526,4.227,8.958,3.999,12.053c0.036-0.483-6.082,4.939-7.331,6.465c-5.342,6.522-8.045,15.876-6.049,24.169 c1.508,6.265,4.613,11.056,8.693,14.766c-9.948,7.596-14.027,25.433-9.785,35.749c1.266,3.08,3.452,5.489,3.37,8.615 c-0.089,3.408-2.849,7.51-3.724,10.877c-2.536,9.763-2.664,19.709,0.675,29.235c0.488,1.392,2.756,9.499,3.739,10.115 c0.045,0.027,0.071,0.058,0.109,0.086c-2.055,3.045-4.248,6.006-6.049,9.228c-4.634,8.29-7.992,18.371-6.332,27.961 c0.791,4.568,2.711,8.749,4.505,12.99c2.236,5.287,1.166,7.143-1.33,12.093c-4.476,8.876-8.221,19.377-7.603,29.469 c0.538,8.775,4.655,14.788,9.208,21.74c5.683,8.678-1.737,20.142-0.67,30.397c1.757,16.895,17.869,26.283,33.85,24.627 c17.502-1.812,28.38-15.414,34.087-31.039c7.954-21.78,9.819-47.686,10.51-70.699c0.419-13.939-0.623-27.778-0.57-41.703 c0.053-13.879-0.042-27.749-1.156-41.59c-1.067-13.252-1.293-26.501-2.554-39.74c-0.716-7.524-0.599-16.592-2.372-24.479 c22.49,0.476,45.083-1.504,67.5-2.258c30.313-1.02,60.701-0.553,91.029-0.968c6.354,0.704,12.712,1.36,19.151,1.37 c11.034,0.018,22.199,0.642,33.195,1.562c12.907,1.079,25.905,0.135,38.839,0.965c12.346,0.792,24.818,1.561,37.266,1.596 c-0.542,2.694-0.69,5.567-0.898,8.841c-0.677,10.648,0.527,21.54,0.088,32.32c-0.961,23.602-0.449,47.358-2.557,70.892 c-2.124,23.72-5.13,47.697-4.804,71.538c0.217,15.876-1.196,41.547,10.853,53.937c11.143,11.458,30.368,18.229,45.437,11.632 c16.611-7.274,22.26-26.38,25.313-42.919c1.497-8.108-0.139-16.85-3.008-24.485c-1.614-4.297-2.803-4.562-0.936-9.216 c1.913-4.768,4.602-8.665,6.023-13.781c2.343-8.437,2.867-17.494-0.295-25.811c-1.55-4.075-4.818-6.974-6.521-10.701 c0.35-0.152,0.762-0.406,1.255-0.806C470.769,380.248,472.417,378.394,473.643,376.449z M218.415,20.643 c33.956-7.74,72.31-11.715,106.716-4.827c28.357,5.678,60.312,13.745,82.473,33.808c-6.255-0.556-11.966,0.72-18.902,3.339 c-16.823,6.354-31.917,5.231-48.228-2.014c-11.304-5.02-21.35-9.15-34.02-8.444c-13.765,0.766-24.871,5.836-37.417,10.944 c-13.677,5.568-27.393,9.939-42.388,7.579c-13.857-2.182-25.305-9.564-38.567-13.202c-11.831-3.245-24.655-2.802-36.752-1.221 C171.886,34.17,195.011,25.978,218.415,20.643z M124.373,67.014c5.164-4.897,10.652-9.357,16.385-13.448 c3.79-0.775,7.71-1.236,11.286-1.583c16.379-1.592,31.11,0.004,46.145,6.862c21.533,9.822,43.432,13.411,66.04,4.545 c13.299-5.216,25.836-12.069,40.309-13.305c16.41-1.401,28.604,6.76,43.433,11.864c10.478,3.605,20.24,3.616,31.137,1.876 c6.38-1.018,11.906-4.007,18.086-5.67c5.941-1.599,11.266-0.736,17.098-1.238c0.111-0.009,0.197-0.06,0.302-0.079 c0.682,0.787,1.394,1.539,2.049,2.357c5.851,7.313,10.674,15.466,14.54,24.063c-9.84-1.639-18.914-1.194-29.549,0.625 c-18.115,3.099-32.579-1.211-49.295-7.594c-14.508-5.541-27.476-8.262-42.984-4.999c-16.18,3.404-30.175,12.761-45.671,18.034 c-16.383,5.576-35.103,3.648-51.528-0.817c-13.82-3.757-27.292-9.816-41.228-12.777c-22.124-4.703-44.392,1.338-63.692,12.381 C112.073,80.523,117.606,73.431,124.373,67.014z M87.433,135.665c2.442-9.603,4.823-19.061,9.111-28.04 c1.948-4.079,3.986-8.053,6.148-11.924c10.78-5.117,21.556-10.406,33.198-13.09c17.785-4.103,32.631-1.392,49.334,4.672 c24.751,8.983,54.347,17.335,80.277,8.636c14.41-4.833,27.455-13.118,42.223-16.978c17.737-4.637,32.43,0.093,48.782,6.59 c12.814,5.091,26.37,8.316,40.188,6.371c7.696-1.084,15.227-3.113,23.042-3.192c5.077-0.05,9.742,1.309,14.549,2.031 c2.553,6.809,4.529,13.824,5.944,20.872c1.904,9.482,2.939,18.767,3.584,28.373c0.419,6.237-0.129,12.522-0.202,18.745 c-1.802-0.798-3.376-1.908-4.456-3.692c-2.052-3.389-2.495-7.198-5.173-10.346c-5.452-6.406-16.24-10.481-24.427-11.634 c-3.927-0.554-7.854-0.443-11.732,0.41c-3.102,0.681-9.699,4.709-12.769,4.449c-3.925-0.331-7.716-6.889-10.689-9.047 c-3.721-2.701-7.907-4.473-12.414-5.382c-10.447-2.109-19.591,1.556-29.282,4.834c-7.981,2.701-12.582,1.478-20.129-2.24 c-5.329-2.626-10.499-4.868-16.422-5.772c-9.402-1.435-18.638,0.512-26.904,5.092c-6.222,3.446-8.771,4.444-15.191,1.886 c-6.082-2.424-12.141-5.286-18.784-5.758c-9.074-0.646-17.627,3.072-24.986,8.098c-6.16,4.208-6.309,3.425-13.573,0.325 c-5.15-2.198-10.188-4.213-15.774-5.058c-8.321-1.256-17.173-0.518-24.286,4.314c-2.041,1.386-5.772,6.94-7.2,7.368 c-3.007,0.903-12.338-4.494-16.075-5.276c-16.701-3.499-37.997-0.039-48.757,14.439C85.498,142.19,86.668,138.676,87.433,135.665z M104.723,425.902c-1.605,17.638-3.362,40.188-12.93,55.645c-5.005,8.084-12.506,13.598-22.384,13.253 c-10.392-0.363-17.05-7.466-16.537-17.763c0.382-7.665,5.361-15.135,3.983-22.884c-1.113-6.259-6.918-10.164-9.645-15.616 c-4.428-8.857-1.967-19.503,1.989-28.16c2.983-6.529,7.824-11.907,6.243-19.418c-1.865-8.86-7.844-15.142-5.911-24.847 c1.734-8.708,7.439-14.411,11.219-21.913c3.019-5.991-0.809-11.709-3.129-17.338c-4.547-11.032-2.968-21.331,0.758-32.392 c2.173-6.452,2.487-9.138-0.963-15.119c-3.617-6.27-4.377-11.211-2.057-18.342c1.162-3.573,3.167-8.764,6.166-11.88 c8.668,4.592,19.345,6.476,28.921,7.517c3.11,0.339,6.225,0.591,9.341,0.799c-0.26,1.36-0.563,2.728-0.535,4.146 c0.09,4.552,0.737,9.2,1.367,13.711c1.381,9.896,2.217,19.827,2.515,29.814c0.604,20.271,2.341,40.338,2.251,60.663 C105.296,385.926,106.556,405.749,104.723,425.902z M384.105,245.2c-22.557-0.596-45.093-1.156-67.659-1.464 c-46.924-0.638-94.042-2.667-140.958-1.171c-23.039,0.735-46.019,2.188-69.081,1.282c-10.683-0.42-22.462-0.701-32.684-4.169 c-12.432-4.217-21.431-16.763-11.469-28.843c3.29-3.991,8.868-5.93,8.566-11.911c-0.198-3.931-3.113-7.826-3.905-11.701 c-1.826-8.93,1.912-15.561,10.037-18.777c6.826-2.702,10.755-3.35,14.707-10.065c6.112-10.385,15.029-14.883,27.112-15.637 c10.254-0.64,17.778,3.791,27.304,5.969c7.896,1.805,10.424-3.293,15.91-7.771c17.365-14.176,33.831,12.365,50.2,3.483 c9.832-5.335,15.981-11.645,28.207-8.212c7.445,2.089,15.801,8.679,23.879,7.011c9.785-2.021,15.584-10.375,26.646-10.085 c11.008,0.288,19.119,8.736,29.642,10.395c9.165,1.445,16.581-3.479,25.065-5.958c5.284-1.543,10.943-2.5,16.317-0.66 c5.498,1.883,8.306,6.331,12.406,10.021c5.064,4.558,9.094,5.056,15.368,3.001c10.625-3.48,18.31-5.942,28.979-0.187 c8.268,4.459,7.153,12.77,13.921,18.249c6.593,5.337,16.205,3.08,23.001,8.223c9.521,7.206-0.344,13.87-1.454,21.745 c-1.233,8.747,8.091,9.8,11.766,15.847c3.45,5.678,2.02,9.947-0.839,15.301c-3.63,6.8-7.618,9.007-14.931,11.55 c-5.473,1.905-11.122,3.331-16.849,4.338C416.912,245.033,400.501,245.633,384.105,245.2z M455.655,386.755 c0.776,1.468,2.342,2.153,3.392,3.326c4.673,5.218,6.239,11.126,5.512,18.041c-0.887,8.435-5.808,14.803-8.693,22.411 c-2.478,6.533,0.264,9.919,2.415,15.849c2.868,7.908,2.479,15.397-0.016,23.241c-2.472,7.775-3.479,16.896-9.384,22.945 c-13.172,13.496-39.138,4.292-43.11-13.014c-8.116-35.358-0.216-73.755,2.634-109.276c1.679-20.937,1.855-42.044,2.569-63.034 c0.334-9.82,1.236-19.608,0.522-29.422c-0.394-5.42-0.82-12.143,0.337-17.839c4.726-0.218,9.443-0.557,14.138-1.112 c9.628-1.138,19.949-2.482,29.023-5.941c5.055,3.442,7.266,8.852,6.576,16.081c-0.815,8.548-6.229,14.303-11.35,20.718 c-2.732,3.424-2.259,7.332,1.281,9.939c7.921,5.835,14.781,11.284,10.773,22.481c-1.934,5.402-7.78,9.616-7.689,15.625 c0.087,5.699,5.171,7.468,8.234,11.449c7.667,9.963,1.841,18.212-4.62,26.115C455.58,378.543,453.507,382.694,455.655,386.755z"></path></g></g></svg>